<svg width="360" height="360" fill="none" xmlns="http://www.w3.org/2000/svg"><path fill-rule="evenodd" clip-rule="evenodd" d="M179.8 11.623l1.379.485 174.658 96.843c1.086.903 1.577 1.051 2.036 2.474.659 2.044-.5 4.575-2.546 5.385-.506.198-1.066.204-1.6.305H4.382c-1.388-.264-1.89-.157-2.979-1.179-1.565-1.469-1.783-4.244-.386-5.942.345-.419.836-.694 1.254-1.043l174.687-96.843 1.379-.485h1.463zM21.217 108.405h315.674L179.069 20.896 21.218 108.405z" fill="#222"/><path fill-rule="evenodd" clip-rule="evenodd" d="M25.137 138.92v-26.178h8.71v17.468h290.322v-17.468h8.71v26.178H25.137zm307.742 180.087h-8.71v-23.4H33.846v23.4h-8.71v-32.11H332.88v32.11z" fill="#222"/><path fill-rule="evenodd" clip-rule="evenodd" d="M89.21 153.201c-.043 7.812-7.606 14.757-15.61 13.741-5.159-.657-9.775-4.451-11.415-9.398H52.163c-.348 1.045-.407 1.091-.601 1.507-3.063 6.546-11.732 9.83-18.424 6.703-4.732-2.212-7.958-7.249-8.001-12.548V130.21H89.21v22.991zm-19.012.122c.119 3.864 5.562 6.607 8.71 3.6 1.007-.961 1.585-2.332 1.593-3.746V138.92H33.846c0 4.778-.04 9.557 0 14.336.061 3.629 4.704 6.451 8.025 4.207a5.256 5.256 0 002.282-4.207l.023-4.422h25.995c.006 1.495-.005 2.993.027 4.489zm5.519 105.43c7.115.223 13.45 6.361 13.494 13.848v22.991H25.137v-22.999c.066-7.825 7.653-14.743 15.61-13.733 5.154.656 9.781 4.463 11.416 9.398h10.022c.348-1.048.406-1.092.6-1.51 2.213-4.726 7.218-7.96 12.578-7.998.177 0 .177 0 .354.003zm-.421 8.707c-2.616.046-4.974 2.229-5.098 4.953l-.026 4.555H44.175c-.014-2.877.357-6.022-1.449-7.906-2.749-2.877-8.84-1.199-8.88 3.568v14.252H80.5c0-4.781.026-9.563 0-14.345-.046-2.7-2.465-5.098-5.205-5.077zm122.06-8.71c7.185.134 13.628 6.329 13.671 13.851v22.991h-64.074v-22.991c.044-7.873 7.734-14.844 15.808-13.717 5.078.708 9.581 4.424 11.221 9.374h10.019c.36-1.077.441-1.182.674-1.661 2.224-4.61 7.092-7.751 12.327-7.847h.354zm-.244 8.71c-2.674.049-5.054 2.398-5.101 5.083l-.038 4.425h-25.981c-.017-3.197.259-6.384-1.707-8.176-2.88-2.621-8.596-.569-8.622 3.833v14.257h46.655c0-4.778.026-9.557 0-14.339-.056-2.714-2.465-5.104-5.206-5.083zm122.06-8.71c7.203.134 13.657 6.283 13.701 13.852v22.99H268.77v-22.99c.043-7.981 7.975-15.022 16.156-13.666 4.912.813 9.203 4.489 10.844 9.235l10.074.087c.247-.746.328-.914.522-1.347 2.195-4.868 7.401-8.198 12.806-8.161zm-.243 8.71c-2.645.049-5.017 2.323-5.072 5.084l-.024 4.424h-26.024c-.018-3.045.305-6.341-1.707-8.175-2.845-2.59-8.597-.796-8.623 3.832v14.258h46.684c0-4.779.026-9.558 0-14.339-.055-2.712-2.433-5.104-5.234-5.084zM211.027 153.201c-.046 8.094-8.181 15.189-16.47 13.601-4.819-.92-8.994-4.59-10.556-9.258h-10.019c-.374 1.126-.476 1.271-.74 1.806-3.179 6.404-11.796 9.522-18.427 6.334-4.66-2.241-7.833-7.211-7.862-12.483V130.21h64.074v22.991zm-19.013.127c.119 3.879 5.586 6.582 8.71 3.595a5.246 5.246 0 001.594-3.749V138.92h-46.655c0 4.778-.026 9.557 0 14.336.075 3.867 5.472 6.686 8.672 3.707 1.01-.943 1.605-2.305 1.634-3.707l.023-4.422h25.981c.015 1.498.015 2.996.041 4.494zm140.859-.127c-.044 7.853-7.734 14.85-15.814 13.714-5.092-.714-9.618-4.502-11.215-9.371h-10.045c-.392 1.19-.517 1.367-.816 1.951-3.226 6.326-11.79 9.342-18.349 6.19-4.668-2.245-7.835-7.224-7.864-12.484V130.21h64.103v22.991zm-19.013.122c.116 3.768 5.202 6.488 8.425 3.841 1.167-.961 1.869-2.448 1.878-3.987V138.92h-46.684c0 4.778-.026 9.557 0 14.336.079 3.899 5.496 6.671 8.666 3.71 1.016-.946 1.612-2.308 1.641-3.71l.023-4.422h26.024c.009 1.495-.005 2.993.027 4.489z" fill="#222"/><path d="M43.339 162.708h-8.71v100.405h8.71V162.708zm36.386 0h-8.71v100.405h8.71V162.708zm85.518 0h-8.71v100.405h8.71V162.708zm36.299 0h-8.71v100.405h8.71V162.708zm85.517 0h-8.709v100.405h8.709V162.708zm36.299 0h-8.71v100.405h8.71V162.708z" fill="#222"/><path fill-rule="evenodd" clip-rule="evenodd" d="M330.622 314.642c14.046.127 26.873 12.214 27.412 26.544.015.351.018.7.021 1.051v4.86H0c0-4.796 0-9.601 1.565-14.026 3.742-10.593 14.42-18.325 25.868-18.429 101.061-.343 202.128-.343 303.189 0zm-303.007 8.709c-8.581.029-16.652 6.347-18.496 14.969l-.014.067H348.95c-1.698-8.228-9.421-14.954-18.383-15.036-100.983-.342-201.966 0-302.952 0z" fill="#222"/></svg>