<svg width="180" height="48" fill="none" xmlns="http://www.w3.org/2000/svg"><rect x="124" y="10" width="56" height="29" rx="2" fill="#FFD300"/><path d="M131.76 32V17.326h7.348v2.112h-5.104v3.806h1.452c1.569 0 2.794.389 3.674 1.166.924.807 1.386 1.885 1.386 3.234 0 .704-.161 1.379-.484 2.024a3.884 3.884 0 01-1.342 1.54c-.792.528-1.863.792-3.212.792h-3.718zm2.244-6.644v4.532h1.364c1.965 0 2.948-.74 2.948-2.222 0-.645-.22-1.188-.66-1.628-.425-.455-1.173-.682-2.244-.682h-1.408zm15.716-1.54v-1.078h2.156V32h-2.156v-.968c-.719.836-1.643 1.254-2.772 1.254-1.364 0-2.457-.484-3.278-1.452-.807-.968-1.21-2.127-1.21-3.476 0-1.467.433-2.64 1.298-3.52.88-.895 1.951-1.342 3.212-1.342 1.159 0 2.075.44 2.75 1.32zm-2.486.616c-.763 0-1.386.286-1.87.858-.469.572-.704 1.276-.704 2.112 0 .821.235 1.518.704 2.09.484.572 1.107.858 1.87.858.733 0 1.349-.257 1.848-.77.513-.513.77-1.232.77-2.156 0-.953-.257-1.687-.77-2.2a2.442 2.442 0 00-1.848-.792zM154.61 32v-9.262h2.156v3.432h3.828v-3.432h2.156V32h-2.156v-3.85h-3.828V32h-2.156zm10.871-9.262h2.156v3.3l3.08-3.3h2.86l-4.048 4.048L173.797 32h-2.728l-3.08-3.806-.352.352V32h-2.156v-9.262zM64.004 16.326v5.808h6.292v-5.808h2.244V31h-2.244v-6.754h-6.292V31H61.76V16.326h2.244zm18.445 6.49v-1.078h2.156V31h-2.156v-.968c-.72.836-1.643 1.254-2.772 1.254-1.364 0-2.457-.484-3.278-1.452-.807-.968-1.21-2.127-1.21-3.476 0-1.467.432-2.64 1.298-3.52.88-.895 1.95-1.342 3.212-1.342 1.158 0 2.075.44 2.75 1.32zm-2.486.616c-.763 0-1.386.286-1.87.858-.47.572-.704 1.276-.704 2.112 0 .821.234 1.518.704 2.09.484.572 1.107.858 1.87.858.733 0 1.349-.257 1.848-.77.513-.513.77-1.232.77-2.156 0-.953-.257-1.687-.77-2.2a2.44 2.44 0 00-1.848-.792zm7.376-1.694h2.156v5.258l6.336-6.094V31h-2.156v-5.39l-6.336 6.094v-9.966zm.704-4.004l1.76-.506c.278.953.88 1.43 1.804 1.43.909 0 1.51-.477 1.804-1.43l1.76.506a3.256 3.256 0 01-1.43 1.936c-.704.44-1.416.66-2.134.66-.72 0-1.438-.22-2.156-.66-.704-.455-1.174-1.1-1.408-1.936zm11.302 4.004h6.952v7.282h1.408v4.62h-1.98V31h-6.468v2.64h-1.98v-4.62c.748-.044 1.313-.447 1.695-1.21.249-.543.374-1.357.374-2.442v-3.63zm4.796 7.282v-5.302h-2.728v2.464c0 1.335-.359 2.28-1.078 2.838h3.806zm5.112-7.282h2.156v5.258l6.336-6.094V31h-2.156v-5.39l-6.336 6.094v-9.966z" fill="#222"/><g clip-path="url(#clip0)" fill="#222"><path d="M17.923 35.772a5.348 5.348 0 01-1.052-.185 4.901 4.901 0 01-.876-.292l.016-1.62a7.93 7.93 0 001.228.372c.576.132.98.17 1.371.17.684 0 1.233-.187 1.651-.561.415-.375.622-.852.622-1.43a2.45 2.45 0 00-.18-.965 1.76 1.76 0 00-.492-.68c-.207-.172-.68-.431-1.416-.777l-1.034-.482c-.879-.41-1.49-.895-1.839-1.456-.35-.562-.522-1.237-.522-2.026 0-.813.257-1.521.768-2.123.51-.603 1.029-.858 1.75-1.073l.009-1.471H19.6l-.004 1.379a3.96 3.96 0 011.882.537v1.636c-.235-.17-.592-.333-1.072-.49a4.257 4.257 0 00-1.332-.237c-.595 0-1.064.169-1.406.508-.345.34-.514.775-.514 1.307 0 .328.061.626.184.895s.296.497.526.684c.227.188.672.439 1.333.754l.806.377c.914.428 1.582.95 2 1.566.423.617.634 1.409.634 2.373 0 .796-.284 1.493-.848 2.092-.565.6-1.168.932-2.166 1.101l-.004 1.49h-1.693l-.004-1.373z"/><path fill-rule="evenodd" clip-rule="evenodd" d="M26.535 11.495c.158.08.16.08.286.205l5.188 6.977c.096.202.096.205.108.428l-.076.212-.15.166-.204.096-.224.012-.212-.076-.167-.15-5.015-6.745H11.964c-2.407 3.238-4.82 6.473-7.223 9.714-2.29 3.105-3.632 6.914-3.566 10.78.041 2.452.67 4.932 2.096 6.91 2.013 2.796 5.433 4.343 8.903 5.053 2.779.57 5.636.628 8.466.617 2.313-.009 4.63-.014 6.93-.116l.252.032.192.117.134.18.053.219-.033.222-.116.193-.181.133-.219.054c-3.09.141-6.167.158-9.26.117-3.765-.05-7.589-.513-10.977-2.086-2.476-1.15-4.65-3.002-5.922-5.425-1.948-3.715-1.848-8.307-.516-12.266a19.778 19.778 0 012.866-5.457l7.37-9.91c.11-.11.132-.156.286-.206.056-.018.117-.018.176-.027h14.684l.176.027z"/><path fill-rule="evenodd" clip-rule="evenodd" d="M27 8.508c.777.016 1.475.675 1.49 1.492.005.56.084 1.148-.091 1.626-.209.57-.777.982-1.399.993-5.314.037-10.63 0-15.945 0-.785-.005-1.496-.684-1.511-1.493-.003-.545-.08-1.122.08-1.591.2-.586.778-1.014 1.413-1.027 5.321-.025 10.642-.025 15.963 0zM11.058 9.66a.371.371 0 00-.362.361c0 .366-.007.731 0 1.096a.373.373 0 00.351.35c5.314.099 10.63.099 15.944 0a.372.372 0 00.347-.355c.003-.367.007-.734 0-1.101a.373.373 0 00-.352-.351c-5.31-.025-10.619 0-15.928 0z"/><path fill-rule="evenodd" clip-rule="evenodd" d="M26.555.96a4.036 4.036 0 012.769 1.146l.018.017 1.77 1.772.126.19.043.222-.046.222-.129.187-4.934 4.781c-.184.12-.187.12-.401.163H12.43c-.215-.042-.218-.043-.401-.163l-4.935-4.78c-.15-.202-.22-.461-.113-.675.028-.054.072-.098.107-.147L8.88 2.106c1.476-1.449 4.065-1.515 5.6.018l1.024 1.022.22-.221c1.74-1.73 4.88-1.86 6.75 0l.223.221c.604-.604 1.159-1.266 1.877-1.672A4.012 4.012 0 0126.507.96h.048zm-.041 1.152a2.872 2.872 0 00-1.98.827l-1.428 1.429c-.062.041-.117.096-.186.125a.575.575 0 01-.441 0c-.07-.028-.125-.083-.187-.124-.513-.512-1.008-1.044-1.646-1.346-1.332-.628-3.032-.352-4.107.717l-.625.627-.186.126-.22.044-.221-.044-.188-.125c-.486-.485-.968-.974-1.458-1.456-1.043-1.011-2.876-1.056-3.964.027l-1.36 1.357 4.347 4.212h12.873l4.347-4.212c-.634-.635-1.22-1.387-1.934-1.802a2.857 2.857 0 00-1.436-.382zm20.958 16.375l.187.125.125.187.044.22v27.133l-.044.22-.125.187c-.185.124-.188.125-.407.17H27.626c-.22-.045-.222-.046-.408-.17l-.124-.186-.044-.22V19.02l.044-.22.124-.188c.186-.124.189-.125.408-.168h19.626l.22.043zm-19.27 1.109v25.98h18.474v-25.98H28.202z"/><path fill-rule="evenodd" clip-rule="evenodd" d="M44.556 21.202a.61.61 0 01.52.574v3.107a.607.607 0 01-.577.576H30.38a.608.608 0 01-.575-.576v-3.107a.607.607 0 01.576-.576H44.5l.056.002zm-13.6 1.15v1.955h12.967v-1.955H30.956zm13.6 6.774c.285.043.505.28.52.574v13.518a.608.608 0 01-.577.576H30.38a.607.607 0 01-.575-.576V29.7a.607.607 0 01.576-.576H44.5l.056.002zm-13.6 1.15v12.366h12.967V30.276H30.956z"/><path fill-rule="evenodd" clip-rule="evenodd" d="M33.97 32.462c.29.035.517.28.53.574v10.182c-.015.352-.371.646-.718.558a.59.59 0 01-.427-.463c-.007-.042-.006-.053-.008-.095V33.036a.6.6 0 01.624-.575zm3.55-3.332a.61.61 0 01.493.57v13.61c-.002.048 0 .061-.01.11-.088.454-.838.618-1.078.154a.633.633 0 01-.064-.264V29.7a.597.597 0 01.658-.57zm3.516.093c.275.053.48.285.494.57v13.611c-.002.049 0 .061-.01.11-.088.455-.831.632-1.078.154a.633.633 0 01-.064-.264v-13.61a.598.598 0 01.658-.571z"/><path fill-rule="evenodd" clip-rule="evenodd" d="M44.556 32.415c.436.065.672.66.35.98-.102.103-.175.158-.407.17h-14.12c-.46-.023-.761-.63-.407-.984.102-.102.175-.157.407-.168H44.5l.056.002zm0 3.517c.367.054.418.213.476.353.141.342-.132.776-.533.796H30.38c-.455-.022-.76-.63-.407-.983.102-.102.176-.157.408-.169H44.5l.056.003zm-.001 3.517c.438.065.676.655.35.98-.102.103-.175.157-.407.169h-14.12c-.37-.018-.436-.172-.507-.304-.184-.345.09-.828.508-.848h14.12l.056.003z"/></g><defs><clipPath id="clip0"><path fill="#fff" d="M0 0h48v48H0z"/></clipPath></defs></svg>