<svg width="360" height="360" viewBox="0 0 360 360" fill="none" xmlns="http://www.w3.org/2000/svg">
<path fill-rule="evenodd" clip-rule="evenodd" d="M179.8 11.6235L181.179 12.1084L355.837 108.951C356.923 109.854 357.414 110.002 357.873 111.425C358.532 113.469 357.373 116 355.327 116.81C354.821 117.008 354.261 117.014 353.727 117.115H4.38166C2.99392 116.851 2.49166 116.958 1.40295 115.936C-0.16189 114.467 -0.379632 111.692 1.01682 109.994C1.3623 109.575 1.85295 109.3 2.27101 108.951L176.958 12.1084L178.337 11.6235C178.825 11.6235 179.313 11.6235 179.8 11.6235V11.6235ZM21.2175 108.405H336.891L179.069 20.8964C126.451 50.0651 73.8355 79.2338 21.2175 108.405Z" fill="#222222"/>
<path fill-rule="evenodd" clip-rule="evenodd" d="M25.1367 138.92V112.742H33.8464V130.21H324.169V112.742H332.879V138.92H25.1367Z" fill="#222222"/>
<path fill-rule="evenodd" clip-rule="evenodd" d="M332.879 319.007H324.169V295.607H33.8464V319.007H25.1367V286.897H332.879V319.007Z" fill="#222222"/>
<path fill-rule="evenodd" clip-rule="evenodd" d="M89.2109 153.201C89.1673 161.013 81.6044 167.958 73.6003 166.942C68.4412 166.285 63.8251 162.491 62.1848 157.544H52.1628C51.8145 158.589 51.7564 158.635 51.5619 159.051C48.499 165.597 39.8299 168.881 33.138 165.754C28.4057 163.542 25.1803 158.505 25.1367 153.206V130.21H89.2109V153.201ZM70.1977 153.323C70.3167 157.187 75.7603 159.93 78.9073 156.923C79.9148 155.962 80.4925 154.591 80.5012 153.177V138.92H33.8464C33.8464 143.698 33.8057 148.477 33.8464 153.256C33.9074 156.885 38.5496 159.707 41.8709 157.463C43.247 156.533 44.118 154.937 44.1528 153.256L44.1761 148.834H70.1715C70.1773 150.329 70.1657 151.827 70.1977 153.323Z" fill="#222222"/>
<path fill-rule="evenodd" clip-rule="evenodd" d="M75.7167 258.753C82.8325 258.976 89.1673 265.114 89.2109 272.601V295.592H25.1367V272.593C25.2035 264.768 32.7896 257.85 40.7474 258.86C45.9006 259.516 50.5283 263.323 52.1628 268.258H62.1848C62.5332 267.21 62.5912 267.166 62.7857 266.748C64.998 262.022 70.0032 258.788 75.3625 258.75C75.5396 258.75 75.5396 258.75 75.7167 258.753ZM75.2957 267.46C72.6799 267.506 70.3225 269.689 70.1977 272.413L70.1715 276.968H44.1761C44.1616 274.091 44.5332 270.946 42.7274 269.062C39.978 266.185 33.887 267.863 33.8464 272.63V286.882H80.5012C80.5012 282.101 80.5273 277.319 80.5012 272.537C80.4548 269.837 78.0364 267.439 75.2957 267.46Z" fill="#222222"/>
<path fill-rule="evenodd" clip-rule="evenodd" d="M197.356 258.75C204.541 258.884 210.984 265.079 211.027 272.601V295.592H146.953V272.601C146.997 264.728 154.687 257.757 162.761 258.884C167.839 259.592 172.342 263.308 173.982 268.258H184.001C184.361 267.181 184.442 267.076 184.675 266.597C186.899 261.987 191.767 258.846 197.002 258.75C197.179 258.75 197.179 258.75 197.356 258.75ZM197.112 267.46C194.438 267.509 192.058 269.858 192.011 272.543L191.973 276.968H165.992C165.975 273.771 166.251 270.584 164.285 268.792C161.405 266.171 155.689 268.223 155.663 272.625V286.882H202.318C202.318 282.104 202.344 277.325 202.318 272.543C202.262 269.829 199.853 267.439 197.112 267.46Z" fill="#222222"/>
<path fill-rule="evenodd" clip-rule="evenodd" d="M319.172 258.75C326.375 258.884 332.829 265.033 332.873 272.602V295.592H268.77V272.602C268.813 264.621 276.745 257.58 284.926 258.936C289.838 259.749 294.129 263.425 295.77 268.171L305.844 268.258C306.091 267.512 306.172 267.344 306.366 266.911C308.561 262.043 313.767 258.713 319.172 258.75ZM318.929 267.46C316.284 267.509 313.912 269.783 313.857 272.544L313.833 276.968H287.809C287.791 273.923 288.114 270.627 286.102 268.793C283.257 266.203 277.505 267.997 277.479 272.625V286.883H324.163C324.163 282.104 324.189 277.325 324.163 272.544C324.108 269.832 321.73 267.44 318.929 267.46Z" fill="#222222"/>
<path fill-rule="evenodd" clip-rule="evenodd" d="M211.027 153.201C210.981 161.295 202.846 168.39 194.557 166.802C189.738 165.882 185.563 162.212 184.001 157.544H173.982C173.608 158.67 173.506 158.815 173.242 159.35C170.063 165.754 161.446 168.872 154.815 165.684C150.155 163.443 146.982 158.473 146.953 153.201V130.21H211.027V153.201ZM192.014 153.328C192.133 157.207 197.6 159.91 200.724 156.923C201.728 155.962 202.309 154.6 202.318 153.174V138.92H155.663C155.663 143.698 155.637 148.477 155.663 153.256C155.738 157.123 161.135 159.942 164.335 156.963C165.345 156.02 165.94 154.658 165.969 153.256L165.992 148.834H191.973C191.988 150.332 191.988 151.83 192.014 153.328Z" fill="#222222"/>
<path fill-rule="evenodd" clip-rule="evenodd" d="M332.873 153.201C332.829 161.054 325.139 168.051 317.059 166.915C311.967 166.201 307.441 162.413 305.844 157.544H295.799C295.407 158.734 295.282 158.911 294.983 159.495C291.757 165.821 283.193 168.837 276.634 165.685C271.966 163.44 268.799 158.461 268.77 153.201V130.21H332.873V153.201ZM313.86 153.323C313.976 157.091 319.062 159.811 322.285 157.164C323.452 156.203 324.154 154.716 324.163 153.177V138.92H277.479C277.479 143.698 277.453 148.477 277.479 153.256C277.558 157.155 282.975 159.927 286.145 156.966C287.161 156.02 287.757 154.658 287.786 153.256L287.809 148.834H313.833C313.842 150.329 313.828 151.827 313.86 153.323Z" fill="#222222"/>
<path d="M43.3386 162.708H34.6289V263.113H43.3386V162.708Z" fill="#222222"/>
<path d="M79.7253 162.708H71.0156V263.113H79.7253V162.708Z" fill="#222222"/>
<path d="M165.243 162.708H156.533V263.113H165.243V162.708Z" fill="#222222"/>
<path d="M201.542 162.708H192.832V263.113H201.542V162.708Z" fill="#222222"/>
<path d="M287.059 162.708H278.35V263.113H287.059V162.708Z" fill="#222222"/>
<path d="M323.358 162.708H314.648V263.113H323.358V162.708Z" fill="#222222"/>
<path fill-rule="evenodd" clip-rule="evenodd" d="M330.622 314.642C344.668 314.769 357.495 326.856 358.034 341.186C358.049 341.537 358.052 341.886 358.055 342.237V347.097H0C0 342.301 0 337.496 1.56484 333.071C5.3071 322.478 15.9852 314.746 27.4326 314.642C128.494 314.299 229.561 314.299 330.622 314.642ZM27.6155 323.351C19.0335 323.38 10.9626 329.698 9.11903 338.32L9.10452 338.387H348.95C347.252 330.159 339.529 323.433 330.567 323.351C229.584 323.009 128.601 323.351 27.6155 323.351Z" fill="#222222"/>
</svg>
