<svg width="180" height="48" viewBox="0 0 180 48" fill="none" xmlns="http://www.w3.org/2000/svg">
<rect x="124" y="10" width="56" height="29" rx="2" fill="#FFD300"/>
<path d="M131.76 32V17.326H139.108V19.438H134.004V23.244H135.456C137.025 23.244 138.25 23.6327 139.13 24.41C140.054 25.2167 140.516 26.2947 140.516 27.644C140.516 28.348 140.355 29.0227 140.032 29.668C139.724 30.2987 139.277 30.812 138.69 31.208C137.898 31.736 136.827 32 135.478 32H131.76ZM134.004 25.356V29.888H135.368C137.333 29.888 138.316 29.1473 138.316 27.666C138.316 27.0207 138.096 26.478 137.656 26.038C137.231 25.5833 136.483 25.356 135.412 25.356H134.004ZM149.72 23.816V22.738H151.876V32H149.72V31.032C149.001 31.868 148.077 32.286 146.948 32.286C145.584 32.286 144.491 31.802 143.67 30.834C142.863 29.866 142.46 28.7073 142.46 27.358C142.46 25.8913 142.893 24.718 143.758 23.838C144.638 22.9433 145.709 22.496 146.97 22.496C148.129 22.496 149.045 22.936 149.72 23.816ZM147.234 24.432C146.471 24.432 145.848 24.718 145.364 25.29C144.895 25.862 144.66 26.566 144.66 27.402C144.66 28.2233 144.895 28.92 145.364 29.492C145.848 30.064 146.471 30.35 147.234 30.35C147.967 30.35 148.583 30.0933 149.082 29.58C149.595 29.0667 149.852 28.348 149.852 27.424C149.852 26.4707 149.595 25.7373 149.082 25.224C148.583 24.696 147.967 24.432 147.234 24.432ZM154.61 32V22.738H156.766V26.17H160.594V22.738H162.75V32H160.594V28.15H156.766V32H154.61ZM165.481 22.738H167.637V26.038L170.717 22.738H173.577L169.529 26.786L173.797 32H171.069L167.989 28.194L167.637 28.546V32H165.481V22.738Z" fill="#222222"/>
<path d="M64.004 16.326V22.134H70.296V16.326H72.54V31H70.296V24.246H64.004V31H61.76V16.326H64.004ZM82.4486 22.816V21.738H84.6046V31H82.4486V30.032C81.7299 30.868 80.8059 31.286 79.6766 31.286C78.3126 31.286 77.2199 30.802 76.3986 29.834C75.5919 28.866 75.1886 27.7073 75.1886 26.358C75.1886 24.8913 75.6213 23.718 76.4866 22.838C77.3666 21.9433 78.4373 21.496 79.6986 21.496C80.8573 21.496 81.7739 21.936 82.4486 22.816ZM79.9626 23.432C79.1999 23.432 78.5766 23.718 78.0926 24.29C77.6233 24.862 77.3886 25.566 77.3886 26.402C77.3886 27.2233 77.6233 27.92 78.0926 28.492C78.5766 29.064 79.1999 29.35 79.9626 29.35C80.6959 29.35 81.3119 29.0933 81.8106 28.58C82.3239 28.0667 82.5806 27.348 82.5806 26.424C82.5806 25.4707 82.3239 24.7373 81.8106 24.224C81.3119 23.696 80.6959 23.432 79.9626 23.432ZM87.3386 21.738H89.4946V26.996L95.8306 20.902V31H93.6746V25.61L87.3386 31.704V21.738ZM88.0426 17.734L89.8026 17.228C90.0813 18.1813 90.6826 18.658 91.6066 18.658C92.5159 18.658 93.1173 18.1813 93.4106 17.228L95.1706 17.734C94.9359 18.57 94.4593 19.2153 93.7406 19.67C93.0366 20.11 92.3253 20.33 91.6066 20.33C90.8879 20.33 90.1693 20.11 89.4506 19.67C88.7466 19.2153 88.2773 18.57 88.0426 17.734ZM99.3455 21.738H106.297V29.02H107.705V33.64H105.725V31H99.2575V33.64H97.2775V29.02C98.0255 28.976 98.5901 28.5727 98.9715 27.81C99.2208 27.2673 99.3455 26.4533 99.3455 25.368V21.738ZM104.141 29.02V23.718H101.413V26.182C101.413 27.5167 101.054 28.4627 100.335 29.02H104.141ZM109.253 21.738H111.409V26.996L117.745 20.902V31H115.589V25.61L109.253 31.704V21.738Z" fill="#222222"/>
<g clip-path="url(#clip0)">
<path d="M17.9228 35.7718C17.5196 35.7487 17.1625 35.6627 16.8706 35.5871C16.5749 35.5103 16.2869 35.4316 15.9951 35.2949L16.0105 33.6748C16.5173 33.8633 16.7247 33.929 17.2393 34.0469C17.8153 34.1786 18.2185 34.2166 18.6101 34.2166C19.2937 34.2166 19.8428 34.0296 20.2613 33.6556C20.6761 33.2812 20.8834 32.8042 20.8834 32.2255C20.8834 31.863 20.822 31.5413 20.7029 31.2605C20.5839 30.9798 20.4188 30.7533 20.2114 30.5809C20.0041 30.4085 19.5317 30.1496 18.7945 29.8044L17.7615 29.3221C16.8821 28.9128 16.2716 28.427 15.9221 27.866C15.5727 27.3042 15.3999 26.6291 15.3999 25.8396C15.3999 25.0267 15.6572 24.319 16.1679 23.7165C16.6786 23.1144 17.197 22.8594 17.9189 22.6444L17.9266 21.1725H19.6009L19.597 22.5518C20.3957 22.5718 21.014 22.8268 21.4786 23.0894V24.7253C21.2444 24.5559 20.8873 24.3919 20.4073 24.2341C19.9311 24.0763 19.4857 23.9976 19.0748 23.9976C18.4796 23.9976 18.0111 24.1669 17.6693 24.5064C17.3237 24.8454 17.1548 25.2813 17.1548 25.8131C17.1548 26.1407 17.2162 26.4387 17.3391 26.7078C17.462 26.9766 17.6348 27.2051 17.8652 27.3921C18.0917 27.5795 18.5372 27.8307 19.1977 28.1463L20.0041 28.5234C20.918 28.9508 21.5861 29.4726 22.0047 30.0894C22.4271 30.7064 22.6383 31.4975 22.6383 32.4621C22.6383 33.2577 22.3541 33.9555 21.7897 34.5545C21.2252 35.1539 20.6223 35.4857 19.6239 35.655L19.6201 37.1442H17.9266L17.9228 35.7718Z" fill="#222222"/>
<path fill-rule="evenodd" clip-rule="evenodd" d="M26.5348 11.4952C26.6934 11.575 26.6946 11.5758 26.8213 11.7002L32.0092 18.6775C32.1048 18.8791 32.1055 18.8818 32.1167 19.1049L32.041 19.3165L31.8905 19.4831L31.6874 19.5795L31.4631 19.591L31.2511 19.5154L31.0845 19.3649L26.0694 12.6199H11.9644C9.55667 15.8578 7.14477 19.0926 4.74131 22.3339C2.45114 25.4386 1.10906 29.2479 1.17472 33.1148C1.21619 35.5662 1.84595 38.0461 3.27059 40.0248C5.28352 42.8204 8.70381 44.3671 12.1744 45.0775C14.9526 45.6466 17.81 45.7046 20.6404 45.6942C22.9525 45.6854 25.2696 45.68 27.5709 45.5782L27.822 45.6105L28.0144 45.7269L28.1476 45.9077L28.2014 46.1258L28.1676 46.3482L28.0516 46.5405L27.8708 46.6738L27.6523 46.7276C24.5622 46.8693 21.4852 46.8861 18.3917 46.8451C14.6266 46.7951 10.8031 46.332 7.41549 44.7588C4.93946 43.6087 2.7641 41.7574 1.49306 39.334C-0.45536 35.6192 -0.354752 31.0269 0.97696 27.0683C1.63437 25.1137 2.61242 23.2713 3.84314 21.6109L11.2125 11.7002C11.3235 11.5908 11.345 11.5447 11.4989 11.4952C11.5554 11.4771 11.6161 11.4767 11.6748 11.4679H26.359C26.4177 11.4767 26.4761 11.4859 26.5348 11.4952Z" fill="#222222"/>
<path fill-rule="evenodd" clip-rule="evenodd" d="M27.0005 8.50793C27.7774 8.52406 28.4751 9.18339 28.4901 10.0002C28.4954 10.5604 28.5738 11.1479 28.3987 11.6264C28.1905 12.1963 27.6218 12.6079 27.0005 12.6194C21.6856 12.6563 16.3699 12.6198 11.0549 12.6198C10.27 12.614 9.55886 11.9355 9.54388 11.1264C9.54119 10.5812 9.46401 10.0044 9.62414 9.53475C9.82343 8.94915 10.4017 8.52099 11.0373 8.50793C16.3583 8.48336 21.6794 8.48336 27.0005 8.50793ZM11.058 9.65993C10.8671 9.6607 10.6959 9.82582 10.6959 10.0213C10.6959 10.3868 10.689 10.752 10.6959 11.1172C10.702 11.3008 10.8633 11.4617 11.0472 11.4674C16.361 11.5657 21.6771 11.5657 26.9905 11.4674C27.1741 11.4617 27.335 11.2969 27.3384 11.1118C27.3415 10.7447 27.345 10.3776 27.3381 10.0105C27.3323 9.82928 27.1718 9.66377 26.9859 9.65993C21.6767 9.63536 16.3672 9.65993 11.058 9.65993Z" fill="#222222"/>
<path fill-rule="evenodd" clip-rule="evenodd" d="M26.5546 0.959839C27.5779 0.969055 28.5871 1.38262 29.324 2.10608L29.3417 2.12336L31.1127 3.89514L31.2382 4.08406L31.2812 4.30717L31.2348 4.52912L31.1061 4.71613L26.1717 9.49731C25.9882 9.61674 25.9855 9.61789 25.7708 9.65974H12.4307C12.2156 9.61789 12.2133 9.61674 12.0298 9.49731L7.09538 4.71613C6.94485 4.51491 6.8742 4.25571 6.98249 4.04221C7.00975 3.98806 7.05353 3.9439 7.08924 3.89475C7.68636 3.29878 8.28309 2.70166 8.88098 2.10608C10.3575 0.657247 12.9464 0.591199 14.4809 2.12374L15.5054 3.14595L15.7254 2.92477C17.4657 1.19485 20.6045 1.06429 22.4753 2.92438L22.6981 3.14634C23.3017 2.5423 23.857 1.87952 24.5747 1.47363C25.161 1.14147 25.8334 0.965983 26.5073 0.959839C26.5231 0.959839 26.5388 0.959839 26.5546 0.959839V0.959839ZM26.5139 2.11184C25.7801 2.11837 25.0554 2.42019 24.534 2.93898L23.1063 4.36784C23.0441 4.40931 22.9888 4.46384 22.9196 4.49264C22.7783 4.55139 22.6201 4.55139 22.4788 4.49302C22.4097 4.46461 22.3544 4.41008 22.2918 4.36861C21.7788 3.85674 21.2838 3.3249 20.6456 3.02346C19.3143 2.39523 17.6143 2.67133 16.5395 3.74L15.9143 4.36707L15.7277 4.49264L15.5073 4.5368L15.2869 4.49302L15.0995 4.36822C14.6133 3.88323 14.131 3.39402 13.6407 2.91248C12.5985 1.90064 10.7649 1.8561 9.67701 2.93936L8.31765 4.29642L12.6638 8.50774H25.5374L29.8842 4.29603C29.2495 3.6609 28.6643 2.90941 27.95 2.49354C27.5169 2.24125 27.0138 2.11069 26.5139 2.11184Z" fill="#222222"/>
<path fill-rule="evenodd" clip-rule="evenodd" d="M47.4725 18.4873L47.6591 18.6121L47.7843 18.7991L47.828 19.0195V46.1522L47.7843 46.3726L47.6591 46.5592C47.4736 46.6832 47.4709 46.6844 47.252 46.7282H27.6258C27.4069 46.6844 27.4039 46.6832 27.2184 46.5592L27.0936 46.3726L27.0498 46.1522V19.0195L27.0936 18.7991L27.2184 18.6121C27.4039 18.488 27.4069 18.4869 27.6258 18.4435H47.252C47.3254 18.4581 47.3987 18.4727 47.4725 18.4873ZM28.2018 19.5955V45.5762H46.676V19.5955H28.2018Z" fill="#222222"/>
<path fill-rule="evenodd" clip-rule="evenodd" d="M44.5558 21.2023C44.8423 21.2449 45.0608 21.4814 45.0754 21.7756V24.8833C45.06 25.1924 44.8131 25.4436 44.4994 25.4593H30.3797C30.0717 25.4439 29.8191 25.1966 29.8037 24.8833V21.7756C29.8187 21.4676 30.066 21.2149 30.3797 21.1996H44.4994C44.5182 21.2004 44.537 21.2011 44.5558 21.2023ZM30.9557 22.3516V24.3073H43.9234V22.3516H30.9557Z" fill="#222222"/>
<path fill-rule="evenodd" clip-rule="evenodd" d="M44.5558 29.1263C44.8412 29.1686 45.0608 29.4055 45.0754 29.6997V43.2176C45.06 43.5252 44.8131 43.7779 44.4994 43.7936H30.3797C30.071 43.7782 29.8191 43.531 29.8037 43.2176V29.6997C29.8187 29.3909 30.066 29.139 30.3797 29.1237H44.4994C44.5182 29.1244 44.537 29.1252 44.5558 29.1263ZM30.9557 30.2757V42.6416H43.9234V30.2757H30.9557Z" fill="#222222"/>
<path fill-rule="evenodd" clip-rule="evenodd" d="M33.9708 32.4615C34.2592 32.4972 34.4869 32.7418 34.4992 33.0356V43.2177C34.4846 43.5702 34.1286 43.8636 33.7819 43.776C33.566 43.7215 33.3917 43.5322 33.3548 43.3126C33.3479 43.2707 33.3487 43.2599 33.3472 43.2177V33.0356C33.3606 32.713 33.6332 32.4473 33.9708 32.4615Z" fill="#222222"/>
<path fill-rule="evenodd" clip-rule="evenodd" d="M37.5191 29.1295C37.7948 29.1825 37.9999 29.4187 38.0133 29.6998V43.311C38.011 43.3594 38.0122 43.3721 38.003 43.4201C37.915 43.8751 37.1647 44.0391 36.9255 43.5748C36.8836 43.4938 36.8656 43.4036 36.8613 43.311V29.6998C36.8771 29.3638 37.1624 29.0953 37.5191 29.1295Z" fill="#222222"/>
<path fill-rule="evenodd" clip-rule="evenodd" d="M41.0362 29.2229C41.3112 29.2759 41.5166 29.5078 41.5304 29.7931V43.4044C41.5281 43.4528 41.5293 43.4655 41.5201 43.5135C41.4321 43.9693 40.6887 44.1463 40.4425 43.6682C40.4007 43.5872 40.3826 43.4969 40.3784 43.4044V29.7931C40.3942 29.4587 40.6799 29.1887 41.0362 29.2229Z" fill="#222222"/>
<path fill-rule="evenodd" clip-rule="evenodd" d="M44.5555 32.4153C44.9917 32.4798 45.2275 33.0742 44.9061 33.3956C44.8039 33.4982 44.731 33.5531 44.499 33.5646H30.3794C29.9197 33.5419 29.6179 32.9352 29.9719 32.5812C30.0741 32.479 30.1474 32.4237 30.3794 32.4126H44.499C44.5179 32.4134 44.5367 32.4141 44.5555 32.4153Z" fill="#222222"/>
<path fill-rule="evenodd" clip-rule="evenodd" d="M44.5559 35.932C44.9234 35.9865 44.9737 36.1455 45.0317 36.2849C45.1733 36.627 44.8999 37.0614 44.4994 37.0813H30.3797C29.9239 37.0587 29.619 36.4512 29.9723 36.0979C30.0745 35.9958 30.1478 35.9405 30.3797 35.9293H44.4994C44.5182 35.9301 44.5371 35.9309 44.5559 35.932Z" fill="#222222"/>
<path fill-rule="evenodd" clip-rule="evenodd" d="M44.5549 39.4487C44.9931 39.5136 45.2308 40.1042 44.9055 40.4291C44.8034 40.5316 44.7304 40.5865 44.4985 40.598H30.3788C30.0075 40.5796 29.9418 40.4264 29.8708 40.2935C29.6868 39.9491 29.9606 39.4664 30.3788 39.446H44.4985C44.5173 39.4468 44.5361 39.448 44.5549 39.4487Z" fill="#222222"/>
</g>
<defs>
<clipPath id="clip0">
<rect width="48" height="48" fill="white"/>
</clipPath>
</defs>
</svg>
